<svg xmlns="http://www.w3.org/2000/svg" width="21" height="21" viewBox="0 0 21 21" fill="none"><script xmlns="" id="eppiocemhmnlbhjplcgkofciiegomcon"/><script xmlns=""/><script xmlns=""/><g clip-path="url(#clip0)"><path d="M20.4565 15.4946L17.8465 12.884C17.1502 12.1877 15.9335 12.1865 15.236 12.884L14.8008 13.3193L20.0214 18.5396L20.4565 18.1045C21.1791 17.3819 21.1767 16.2136 20.4565 15.4946Z" fill="#FF0202"/><path d="M13.909 14.165C13.3598 14.5904 12.5763 14.5734 12.0745 14.0705L6.91406 8.90647C6.41109 8.4035 6.39415 7.61944 6.81961 7.0716L1.611 1.86328C-0.62972 4.47515 -0.542111 8.41072 1.93092 10.8837L10.0972 19.0536C12.4704 21.4267 16.3576 21.7415 19.1179 19.3734L13.909 14.165Z" fill="#FF0202"/><path d="M8.10099 3.13323L5.49104 0.522718C4.79468 -0.173644 3.57804 -0.174834 2.88053 0.522718L2.44531 0.957934L7.66594 6.17827L8.10099 5.74318C8.8236 5.02056 8.82122 3.85228 8.10099 3.13323Z" fill="#FF0202"/></g><defs><clipPath id="clip0"><rect width="21" height="21" fill="white"/></clipPath></defs></svg>